<?xml version="1.0" encoding="UTF-8"?>
<svg xmlns="http://www.w3.org/2000/svg" xmlns:xlink="http://www.w3.org/1999/xlink" viewBox="0 0 30 30" width="20px" height="20px">
<g id="surface5700508">
<path style=" stroke:none;fill-rule:nonzero;fill:rgb(100%,100%,100%);fill-opacity:1;" d="M 4.875 28.125 L 4.875 1.875 L 18.59375 1.875 L 25.125 8.40625 L 25.125 28.125 Z M 4.875 28.125 "/>
<path style=" stroke:none;fill-rule:nonzero;fill:rgb(100%,100%,100%);fill-opacity:1;" d="M 18.441406 2.25 L 24.75 8.558594 L 24.75 27.75 L 5.25 27.75 L 5.25 2.25 L 18.441406 2.25 M 18.75 1.5 L 4.5 1.5 L 4.5 28.5 L 25.5 28.5 L 25.5 8.25 Z M 18.75 1.5 "/>
<path style=" stroke:none;fill-rule:nonzero;fill:rgb(20.392157%,59.607846%,85.882354%);fill-opacity:1;" d="M 18.375 8.625 L 18.375 1.875 L 18.59375 1.875 L 25.125 8.40625 L 25.125 8.625 Z M 18.375 8.625 "/>
<path style=" stroke:none;fill-rule:nonzero;fill:rgb(100%,100%,100%);fill-opacity:1;" d="M 18.75 2.558594 L 24.441406 8.25 L 18.75 8.25 L 18.75 2.558594 M 18.75 1.5 L 18 1.5 L 18 9 L 25.5 9 L 25.5 8.25 Z M 18.75 1.5 "/>
</g>
</svg>
